{"asset":{"version":"2.0","generator":"babylon.js glTF exporter for Autodesk MAYA 2022 v20221031.2"},"scene":0,"scenes":[{"nodes":[0,1]}],"nodes":[{"skin":0,"mesh":0,"name":"pSphere3"},{"children":[2],"name":"stand"},{"children":[3],"translation":[-0.07422744,0.887828946,0.04732306],"rotation":[-0.7173776,0.181299984,0.0879999846,0.6669001],"scale":[1.00000012,0.9999998,0.9999997],"name":"Biped_Root"},{"children":[4,17,21],"translation":[7.425424E-08,-1.52146157E-07,-2.2831232E-08],"rotation":[-0.7071136,-2.340962E-09,-0.7070999,2.249532E-09],"scale":[1.0000006,1.00000036,0.9999999],"name":"Pelvis"},{"children":[5],"translation":[0.09487981,-7.769571E-05,-0.00205797469],"rotation":[-0.0205999985,0.03809997,0.0007999992,0.9990613],"scale":[1.0,0.99999994,1.0],"name":"Spine"},{"children":[6],"translation":[0.0807185546,-0.00111110148,-0.00297543756],"rotation":[-0.0306999963,-0.0220999848,-0.0319000371,0.998774946],"scale":[0.99999994,1.00000012,1.0],"name":"Spine1"},{"children":[7,9,13],"translation":[0.1575515,-0.0018574436,-0.00620214269],"rotation":[-0.0347999968,0.0872,-0.06929997,0.993167937],"scale":[0.9999998,1.0,1.0],"name":"Spine2"},{"children":[8],"translation":[0.226401463,0.018708514,1.90730134E-08],"rotation":[-0.0512999929,-0.06429998,0.134699911,0.9874664],"scale":[1.00000048,1.0,1.0],"name":"Neck"},{"translation":[0.07131341,-7.554935E-07,1.9049363E-08],"scale":[0.9999997,0.99999994,1.0],"name":"Head"},{"children":[10],"translation":[0.183861285,-0.005345286,0.0342662148],"rotation":[0.695799947,0.0222999956,0.7166362,0.0423999876],"scale":[1.00000012,1.00000036,1.00000024],"name":"Left_Clavicle"},{"children":[11],"translation":[0.132752016,-7.801485E-07,3.72490973E-07],"rotation":[0.3204,0.0718999356,-0.457000047,0.8266349],"scale":[1.00000024,1.00000024,0.99999994],"name":"Left_UpperArm"},{"children":[12],"translation":[0.235222444,-3.668746E-05,7.48090133E-06],"rotation":[-1.47343426E-09,-0.000100000885,-0.782858431,0.6221999],"scale":[0.9999999,1.00000012,0.999999642],"name":"Left_Forearm"},{"translation":[0.254889727,2.454287E-06,1.6318005E-06],"rotation":[-0.559999943,0.0416999981,0.0102999983,0.827378452],"scale":[0.999999344,1.0000006,0.9999992],"name":"Left_Hand"},{"children":[14],"translation":[0.183861464,-0.00534424465,-0.0342661962],"rotation":[-0.635999858,0.06300002,0.767904639,-0.0431000143],"scale":[1.00000036,1.00000024,1.00000012],"name":"Right_Clavicle"},{"children":[15],"translation":[0.13275227,4.67121083E-07,1.48452742E-07],"rotation":[0.425600052,-0.1239999,0.2822,0.8507948],"scale":[1.0,0.999999344,1.0],"name":"Right_UpperArm"},{"children":[16],"translation":[0.2352231,-5.747041E-05,-2.94618985E-05],"rotation":[0.0,0.0,-0.279900044,0.9600291],"scale":[0.99999994,1.00000024,0.9999999],"name":"Right_Forearm"},{"translation":[0.254888862,8.219305E-06,-5.092577E-07],"rotation":[0.5598,-0.0416000038,0.0103000011,0.827518761],"scale":[0.9999997,1.00000012,0.999999762],"name":"Right_Hand"},{"children":[18],"translation":[-0.01687393,-0.01474949,0.08514263],"rotation":[0.102000028,-0.966627657,-0.23499994,0.00139998272],"scale":[0.9999995,0.9999997,0.999999642],"name":"Left_Thigh"},{"children":[19],"translation":[0.4619459,-3.50289229E-05,8.260521E-06],"rotation":[-0.0018000002,0.004200001,-0.3454,0.9384444],"scale":[1.00000083,0.99999994,1.00000012],"name":"Left_Calf"},{"children":[20],"translation":[0.425946116,-0.00392043265,0.00413181027],"rotation":[0.09010006,-0.0344999954,-0.0577999577,0.9936553],"scale":[0.9999995,1.0,1.00000024],"name":"Left_Foot"},{"translation":[0.04358607,0.119739473,-0.00999983],"rotation":[0.0,0.0,0.7072136,0.707],"scale":[1.00000036,0.9999998,0.999999642],"name":"Left_Toe0"},{"children":[22],"translation":[-0.0168735,-0.01474964,-0.08514268],"rotation":[-0.202899963,-0.9665922,0.03439997,0.152799949],"scale":[1.00000024,1.00000048,1.00000072],"name":"Right_Thigh"},{"children":[23],"translation":[0.461946666,-1.86377347E-05,4.90655475E-06],"rotation":[0.00179999974,-0.00429999968,-0.387899965,0.921689749],"scale":[0.9999995,0.9999993,0.999999],"name":"Right_Calf"},{"children":[24],"translation":[0.425943941,-0.00393490959,-0.00418730034],"rotation":[0.111600041,0.00240000826,0.114300042,0.9871551],"scale":[1.00000048,1.0000006,1.00000072],"name":"Right_Foot"},{"translation":[0.0435860679,0.119739242,0.010000051],"rotation":[0.0,0.0,0.7071136,0.7070999],"scale":[0.999999344,1.00000012,0.9999996],"name":"Right_Toe0"}],"meshes":[{"primitives":[{"attributes":{"POSITION":1,"TANGENT":2,"NORMAL":3,"TEXCOORD_0":4,"JOINTS_0":5,"JOINTS_1":6,"WEIGHTS_0":7,"WEIGHTS_1":8},"indices":0,"material":0}],"name":"pSphere3"}],"accessors":[{"bufferView":0,"componentType":5123,"count":50916,"type":"SCALAR","name":"accessorIndices"},{"bufferView":1,"componentType":5126,"count":10162,"max":[0.244165689,1.52361,0.237055585],"min":[-0.647498369,0.00535045424,-0.251186073],"type":"VEC3","name":"accessorPositions"},{"bufferView":2,"componentType":5126,"count":10162,"type":"VEC4","name":"accessorTangents"},{"bufferView":1,"byteOffset":121944,"componentType":5126,"count":10162,"type":"VEC3","name":"accessorNormals"},{"bufferView":3,"componentType":5126,"count":10162,"type":"VEC2","name":"accessorUVs"},{"bufferView":4,"componentType":5123,"count":10162,"type":"VEC4","name":"accessorJoints"},{"bufferView":4,"byteOffset":81296,"componentType":5123,"count":10162,"type":"VEC4","name":"accessorJointsExtra"},{"bufferView":2,"byteOffset":162592,"componentType":5126,"count":10162,"type":"VEC4","name":"accessorWeights"},{"bufferView":2,"byteOffset":325184,"componentType":5126,"count":10162,"type":"VEC4","name":"accessorWeightsExtra"},{"bufferView":5,"componentType":5126,"count":24,"type":"MAT4","name":"accessorInverseBindMatrices"},{"bufferView":6,"componentType":5126,"count":844,"max":[28.1],"min":[0.0],"type":"SCALAR","name":"accessorAnimationInput"},{"bufferView":7,"componentType":5126,"count":844,"type":"VEC3","name":"accessorAnimationPositions"},{"bufferView":8,"componentType":5126,"count":844,"type":"VEC4","name":"accessorAnimationRotations"},{"bufferView":7,"byteOffset":10128,"componentType":5126,"count":844,"type":"VEC3","name":"accessorAnimationScales"},{"bufferView":6,"byteOffset":3376,"componentType":5126,"count":485,"max":[28.1],"min":[0.0],"type":"SCALAR","name":"accessorAnimationInput"},{"bufferView":7,"byteOffset":20256,"componentType":5126,"count":485,"type":"VEC3","name":"accessorAnimationPositions"},{"bufferView":8,"byteOffset":13504,"componentType":5126,"count":485,"type":"VEC4","name":"accessorAnimationRotations"},{"bufferView":7,"byteOffset":26076,"componentType":5126,"count":485,"type":"VEC3","name":"accessorAnimationScales"},{"bufferView":6,"byteOffset":5316,"componentType":5126,"count":844,"max":[28.1],"min":[0.0],"type":"SCALAR","name":"accessorAnimationInput"},{"bufferView":7,"byteOffset":31896,"componentType":5126,"count":844,"type":"VEC3","name":"accessorAnimationPositions"},{"bufferView":8,"byteOffset":21264,"componentType":5126,"count":844,"type":"VEC4","name":"accessorAnimationRotations"},{"bufferView":7,"byteOffset":42024,"componentType":5126,"count":844,"type":"VEC3","name":"accessorAnimationScales"},{"bufferView":6,"byteOffset":8692,"componentType":5126,"count":844,"max":[28.1],"min":[0.0],"type":"SCALAR","name":"accessorAnimationInput"},{"bufferView":7,"byteOffset":52152,"componentType":5126,"count":844,"type":"VEC3","name":"accessorAnimationPositions"},{"bufferView":8,"byteOffset":34768,"componentType":5126,"count":844,"type":"VEC4","name":"accessorAnimationRotations"},{"bufferView":7,"byteOffset":62280,"componentType":5126,"count":844,"type":"VEC3","name":"accessorAnimationScales"},{"bufferView":6,"byteOffset":12068,"componentType":5126,"count":844,"max":[28.1],"min":[0.0],"type":"SCALAR","name":"accessorAnimationInput"},{"bufferView":7,"byteOffset":72408,"componentType":5126,"count":844,"type":"VEC3","name":"accessorAnimationPositions"},{"bufferView":8,"byteOffset":48272,"componentType":5126,"count":844,"type":"VEC4","name":"accessorAnimationRotations"},{"bufferView":7,"byteOffset":82536,"componentType":5126,"count":844,"type":"VEC3","name":"accessorAnimationScales"},{"bufferView":6,"byteOffset":15444,"componentType":5126,"count":844,"max":[28.1],"min":[0.0],"type":"SCALAR","name":"accessorAnimationInput"},{"bufferView":7,"byteOffset":92664,"componentType":5126,"count":844,"type":"VEC3","name":"accessorAnimationPositions"},{"bufferView":8,"byteOffset":61776,"componentType":5126,"count":844,"type":"VEC4","name":"accessorAnimationRotations"},{"bufferView":7,"byteOffset":102792,"componentType":5126,"count":844,"type":"VEC3","name":"accessorAnimationScales"},{"bufferView":6,"byteOffset":18820,"componentType":5126,"count":3,"max":[28.1],"min":[0.0],"type":"SCALAR","name":"accessorAnimationInput"},{"bufferView":7,"byteOffset":112920,"componentType":5126,"count":3,"type":"VEC3","name":"accessorAnimationPositions"},{"bufferView":8,"byteOffset":75280,"componentType":5126,"count":3,"type":"VEC4","name":"accessorAnimationRotations"},{"bufferView":7,"byteOffset":112956,"componentType":5126,"count":3,"type":"VEC3","name":"accessorAnimationScales"},{"bufferView":6,"byteOffset":18832,"componentType":5126,"count":844,"max":[28.1],"min":[0.0],"type":"SCALAR","name":"accessorAnimationInput"},{"bufferView":7,"byteOffset":112992,"componentType":5126,"count":844,"type":"VEC3","name":"accessorAnimationPositions"},{"bufferView":8,"byteOffset":75328,"componentType":5126,"count":844,"type":"VEC4","name":"accessorAnimationRotations"},{"bufferView":7,"byteOffset":123120,"componentType":5126,"count":844,"type":"VEC3","name":"accessorAnimationScales"},{"bufferView":6,"byteOffset":22208,"componentType":5126,"count":844,"max":[28.1],"min":[0.0],"type":"SCALAR","name":"accessorAnimationInput"},{"bufferView":7,"byteOffset":133248,"componentType":5126,"count":844,"type":"VEC3","name":"accessorAnimationPositions"},{"bufferView":8,"byteOffset":88832,"componentType":5126,"count":844,"type":"VEC4","name":"accessorAnimationRotations"},{"bufferView":7,"byteOffset":143376,"componentType":5126,"count":844,"type":"VEC3","name":"accessorAnimationScales"},{"bufferView":6,"byteOffset":25584,"componentType":5126,"count":844,"max":[28.1],"min":[0.0],"type":"SCALAR","name":"accessorAnimationInput"},{"bufferView":7,"byteOffset":153504,"componentType":5126,"count":844,"type":"VEC3","name":"accessorAnimationPositions"},{"bufferView":8,"byteOffset":102336,"componentType":5126,"count":844,"type":"VEC4","name":"accessorAnimationRotations"},{"bufferView":7,"byteOffset":163632,"componentType":5126,"count":844,"type":"VEC3","name":"accessorAnimationScales"},{"bufferView":6,"byteOffset":28960,"componentType":5126,"count":844,"max":[28.1],"min":[0.0],"type":"SCALAR","name":"accessorAnimationInput"},{"bufferView":7,"byteOffset":173760,"componentType":5126,"count":844,"type":"VEC3","name":"accessorAnimationPositions"},{"bufferView":8,"byteOffset":115840,"componentType":5126,"count":844,"type":"VEC4","name":"accessorAnimationRotations"},{"bufferView":7,"byteOffset":183888,"componentType":5126,"count":844,"type":"VEC3","name":"accessorAnimationScales"},{"bufferView":6,"byteOffset":32336,"componentType":5126,"count":844,"max":[28.1],"min":[0.0],"type":"SCALAR","name":"accessorAnimationInput"},{"bufferView":7,"byteOffset":194016,"componentType":5126,"count":844,"type":"VEC3","name":"accessorAnimationPositions"},{"bufferView":8,"byteOffset":129344,"componentType":5126,"count":844,"type":"VEC4","name":"accessorAnimationRotations"},{"bufferView":7,"byteOffset":204144,"componentType":5126,"count":844,"type":"VEC3","name":"accessorAnimationScales"},{"bufferView":6,"byteOffset":35712,"componentType":5126,"count":844,"max":[28.1],"min":[0.0],"type":"SCALAR","name":"accessorAnimationInput"},{"bufferView":7,"byteOffset":214272,"componentType":5126,"count":844,"type":"VEC3","name":"accessorAnimationPositions"},{"bufferView":8,"byteOffset":142848,"componentType":5126,"count":844,"type":"VEC4","name":"accessorAnimationRotations"},{"bufferView":7,"byteOffset":224400,"componentType":5126,"count":844,"type":"VEC3","name":"accessorAnimationScales"},{"bufferView":6,"byteOffset":39088,"componentType":5126,"count":844,"max":[28.1],"min":[0.0],"type":"SCALAR","name":"accessorAnimationInput"},{"bufferView":7,"byteOffset":234528,"componentType":5126,"count":844,"type":"VEC3","name":"accessorAnimationPositions"},{"bufferView":8,"byteOffset":156352,"componentType":5126,"count":844,"type":"VEC4","name":"accessorAnimationRotations"},{"bufferView":7,"byteOffset":244656,"componentType":5126,"count":844,"type":"VEC3","name":"accessorAnimationScales"},{"bufferView":6,"byteOffset":42464,"componentType":5126,"count":844,"max":[28.1],"min":[0.0],"type":"SCALAR","name":"accessorAnimationInput"},{"bufferView":7,"byteOffset":254784,"componentType":5126,"count":844,"type":"VEC3","name":"accessorAnimationPositions"},{"bufferView":8,"byteOffset":169856,"componentType":5126,"count":844,"type":"VEC4","name":"accessorAnimationRotations"},{"bufferView":7,"byteOffset":264912,"componentType":5126,"count":844,"type":"VEC3","name":"accessorAnimationScales"},{"bufferView":6,"byteOffset":45840,"componentType":5126,"count":844,"max":[28.1],"min":[0.0],"type":"SCALAR","name":"accessorAnimationInput"},{"bufferView":7,"byteOffset":275040,"componentType":5126,"count":844,"type":"VEC3","name":"accessorAnimationPositions"},{"bufferView":8,"byteOffset":183360,"componentType":5126,"count":844,"type":"VEC4","name":"accessorAnimationRotations"},{"bufferView":7,"byteOffset":285168,"componentType":5126,"count":844,"type":"VEC3","name":"accessorAnimationScales"},{"bufferView":6,"byteOffset":49216,"componentType":5126,"count":3,"max":[28.1],"min":[0.0],"type":"SCALAR","name":"accessorAnimationInput"},{"bufferView":7,"byteOffset":295296,"componentType":5126,"count":3,"type":"VEC3","name":"accessorAnimationPositions"},{"bufferView":8,"byteOffset":196864,"componentType":5126,"count":3,"type":"VEC4","name":"accessorAnimationRotations"},{"bufferView":7,"byteOffset":295332,"componentType":5126,"count":3,"type":"VEC3","name":"accessorAnimationScales"},{"bufferView":6,"byteOffset":49228,"componentType":5126,"count":844,"max":[28.1],"min":[0.0],"type":"SCALAR","name":"accessorAnimationInput"},{"bufferView":7,"byteOffset":295368,"componentType":5126,"count":844,"type":"VEC3","name":"accessorAnimationPositions"},{"bufferView":8,"byteOffset":196912,"componentType":5126,"count":844,"type":"VEC4","name":"accessorAnimationRotations"},{"bufferView":7,"byteOffset":305496,"componentType":5126,"count":844,"type":"VEC3","name":"accessorAnimationScales"},{"bufferView":6,"byteOffset":52604,"componentType":5126,"count":844,"max":[28.1],"min":[0.0],"type":"SCALAR","name":"accessorAnimationInput"},{"bufferView":7,"byteOffset":315624,"componentType":5126,"count":844,"type":"VEC3","name":"accessorAnimationPositions"},{"bufferView":8,"byteOffset":210416,"componentType":5126,"count":844,"type":"VEC4","name":"accessorAnimationRotations"},{"bufferView":7,"byteOffset":325752,"componentType":5126,"count":844,"type":"VEC3","name":"accessorAnimationScales"},{"bufferView":6,"byteOffset":55980,"componentType":5126,"count":844,"max":[28.1],"min":[0.0],"type":"SCALAR","name":"accessorAnimationInput"},{"bufferView":7,"byteOffset":335880,"componentType":5126,"count":844,"type":"VEC3","name":"accessorAnimationPositions"},{"bufferView":8,"byteOffset":223920,"componentType":5126,"count":844,"type":"VEC4","name":"accessorAnimationRotations"},{"bufferView":7,"byteOffset":346008,"componentType":5126,"count":844,"type":"VEC3","name":"accessorAnimationScales"},{"bufferView":6,"byteOffset":59356,"componentType":5126,"count":3,"max":[28.1],"min":[0.0],"type":"SCALAR","name":"accessorAnimationInput"},{"bufferView":7,"byteOffset":356136,"componentType":5126,"count":3,"type":"VEC3","name":"accessorAnimationPositions"},{"bufferView":8,"byteOffset":237424,"componentType":5126,"count":3,"type":"VEC4","name":"accessorAnimationRotations"},{"bufferView":7,"byteOffset":356172,"componentType":5126,"count":3,"type":"VEC3","name":"accessorAnimationScales"}],"bufferViews":[{"buffer":0,"byteLength":101832,"name":"bufferViewScalar"},{"buffer":0,"byteOffset":101832,"byteLength":243888,"byteStride":12,"name":"bufferViewFloatVec3"},{"buffer":0,"byteOffset":345720,"byteLength":487776,"byteStride":16,"name":"bufferViewFloatVec4"},{"buffer":0,"byteOffset":833496,"byteLength":81296,"byteStride":8,"name":"bufferViewFloatVec2"},{"buffer":0,"byteOffset":914792,"byteLength":162592,"byteStride":8,"name":"bufferViewUnsignedShortVec4"},{"buffer":0,"byteOffset":1077384,"byteLength":1536,"name":"bufferViewFloatMat4"},{"buffer":0,"byteOffset":1078920,"byteLength":59368,"name":"bufferViewAnimationFloatScalar"},{"buffer":0,"byteOffset":1138288,"byteLength":356208,"name":"bufferViewAnimationFloatVec3"},{"buffer":0,"byteOffset":1494496,"byteLength":237472,"name":"bufferViewAnimationFloatVec4"}],"buffers":[{"uri":"donghua_hcr.bin","byteLength":1731968}],"materials":[{"pbrMetallicRoughness":{"baseColorFactor":[0.5,0.5,0.5,1.0],"metallicFactor":0.0,"roughnessFactor":0.450053632},"name":"lambert1"}],"animations":[{"channels":[{"sampler":0,"target":{"node":2,"path":"translation"}},{"sampler":1,"target":{"node":2,"path":"rotation"}},{"sampler":2,"target":{"node":2,"path":"scale"}},{"sampler":3,"target":{"node":3,"path":"translation"}},{"sampler":4,"target":{"node":3,"path":"rotation"}},{"sampler":5,"target":{"node":3,"path":"scale"}},{"sampler":6,"target":{"node":4,"path":"translation"}},{"sampler":7,"target":{"node":4,"path":"rotation"}},{"sampler":8,"target":{"node":4,"path":"scale"}},{"sampler":9,"target":{"node":5,"path":"translation"}},{"sampler":10,"target":{"node":5,"path":"rotation"}},{"sampler":11,"target":{"node":5,"path":"scale"}},{"sampler":12,"target":{"node":6,"path":"translation"}},{"sampler":13,"target":{"node":6,"path":"rotation"}},{"sampler":14,"target":{"node":6,"path":"scale"}},{"sampler":15,"target":{"node":7,"path":"translation"}},{"sampler":16,"target":{"node":7,"path":"rotation"}},{"sampler":17,"target":{"node":7,"path":"scale"}},{"sampler":18,"target":{"node":8,"path":"translation"}},{"sampler":19,"target":{"node":8,"path":"rotation"}},{"sampler":20,"target":{"node":8,"path":"scale"}},{"sampler":21,"target":{"node":9,"path":"translation"}},{"sampler":22,"target":{"node":9,"path":"rotation"}},{"sampler":23,"target":{"node":9,"path":"scale"}},{"sampler":24,"target":{"node":10,"path":"translation"}},{"sampler":25,"target":{"node":10,"path":"rotation"}},{"sampler":26,"target":{"node":10,"path":"scale"}},{"sampler":27,"target":{"node":11,"path":"translation"}},{"sampler":28,"target":{"node":11,"path":"rotation"}},{"sampler":29,"target":{"node":11,"path":"scale"}},{"sampler":30,"target":{"node":13,"path":"translation"}},{"sampler":31,"target":{"node":13,"path":"rotation"}},{"sampler":32,"target":{"node":13,"path":"scale"}},{"sampler":33,"target":{"node":14,"path":"translation"}},{"sampler":34,"target":{"node":14,"path":"rotation"}},{"sampler":35,"target":{"node":14,"path":"scale"}},{"sampler":36,"target":{"node":15,"path":"translation"}},{"sampler":37,"target":{"node":15,"path":"rotation"}},{"sampler":38,"target":{"node":15,"path":"scale"}},{"sampler":39,"target":{"node":17,"path":"translation"}},{"sampler":40,"target":{"node":17,"path":"rotation"}},{"sampler":41,"target":{"node":17,"path":"scale"}},{"sampler":42,"target":{"node":18,"path":"translation"}},{"sampler":43,"target":{"node":18,"path":"rotation"}},{"sampler":44,"target":{"node":18,"path":"scale"}},{"sampler":45,"target":{"node":19,"path":"translation"}},{"sampler":46,"target":{"node":19,"path":"rotation"}},{"sampler":47,"target":{"node":19,"path":"scale"}},{"sampler":48,"target":{"node":20,"path":"translation"}},{"sampler":49,"target":{"node":20,"path":"rotation"}},{"sampler":50,"target":{"node":20,"path":"scale"}},{"sampler":51,"target":{"node":21,"path":"translation"}},{"sampler":52,"target":{"node":21,"path":"rotation"}},{"sampler":53,"target":{"node":21,"path":"scale"}},{"sampler":54,"target":{"node":22,"path":"translation"}},{"sampler":55,"target":{"node":22,"path":"rotation"}},{"sampler":56,"target":{"node":22,"path":"scale"}},{"sampler":57,"target":{"node":23,"path":"translation"}},{"sampler":58,"target":{"node":23,"path":"rotation"}},{"sampler":59,"target":{"node":23,"path":"scale"}},{"sampler":60,"target":{"node":24,"path":"translation"}},{"sampler":61,"target":{"node":24,"path":"rotation"}},{"sampler":62,"target":{"node":24,"path":"scale"}}],"samplers":[{"input":10,"output":11},{"input":10,"output":12},{"input":10,"output":13},{"input":14,"output":15},{"input":14,"output":16},{"input":14,"output":17},{"input":18,"output":19},{"input":18,"output":20},{"input":18,"output":21},{"input":22,"output":23},{"input":22,"output":24},{"input":22,"output":25},{"input":26,"output":27},{"input":26,"output":28},{"input":26,"output":29},{"input":30,"output":31},{"input":30,"output":32},{"input":30,"output":33},{"input":34,"output":35},{"input":34,"output":36},{"input":34,"output":37},{"input":38,"output":39},{"input":38,"output":40},{"input":38,"output":41},{"input":42,"output":43},{"input":42,"output":44},{"input":42,"output":45},{"input":46,"output":47},{"input":46,"output":48},{"input":46,"output":49},{"input":50,"output":51},{"input":50,"output":52},{"input":50,"output":53},{"input":54,"output":55},{"input":54,"output":56},{"input":54,"output":57},{"input":58,"output":59},{"input":58,"output":60},{"input":58,"output":61},{"input":62,"output":63},{"input":62,"output":64},{"input":62,"output":65},{"input":66,"output":67},{"input":66,"output":68},{"input":66,"output":69},{"input":70,"output":71},{"input":70,"output":72},{"input":70,"output":73},{"input":74,"output":75},{"input":74,"output":76},{"input":74,"output":77},{"input":78,"output":79},{"input":78,"output":80},{"input":78,"output":81},{"input":82,"output":83},{"input":82,"output":84},{"input":82,"output":85},{"input":86,"output":87},{"input":86,"output":88},{"input":86,"output":89},{"input":90,"output":91},{"input":90,"output":92},{"input":90,"output":93}],"name":"All Animations"}],"skins":[{"inverseBindMatrices":9,"skeleton":1,"joints":[1,2,3,4,5,6,7,8,9,10,11,12,13,14,15,16,17,18,19,20,21,22,23,24],"name":"skeleton #0"}]}