{"asset":{"version":"2.0","generator":"babylon.js glTF exporter for Autodesk MAYA 2022 v20221031.2"},"scene":0,"scenes":[{"nodes":[0]}],"nodes":[{"mesh":0,"translation":[0.006122449,-0.0202653911,0.0],"name":"pCube4"}],"meshes":[{"primitives":[{"attributes":{"POSITION":1,"TANGENT":2,"NORMAL":3,"TEXCOORD_0":4},"indices":0,"material":0}],"name":"pCube4"}],"accessors":[{"bufferView":0,"componentType":5123,"count":120,"type":"SCALAR","name":"accessorIndices"},{"bufferView":1,"componentType":5126,"count":78,"max":[0.01,0.0249999985,0.0150000053],"min":[-0.02451568,0.015,-0.0149999941],"type":"VEC3","name":"accessorPositions"},{"bufferView":2,"componentType":5126,"count":78,"type":"VEC4","name":"accessorTangents"},{"bufferView":1,"byteOffset":936,"componentType":5126,"count":78,"type":"VEC3","name":"accessorNormals"},{"bufferView":3,"componentType":5126,"count":78,"type":"VEC2","name":"accessorUVs"}],"bufferViews":[{"buffer":0,"byteLength":240,"name":"bufferViewScalar"},{"buffer":0,"byteOffset":240,"byteLength":1872,"byteStride":12,"name":"bufferViewFloatVec3"},{"buffer":0,"byteOffset":2112,"byteLength":1248,"byteStride":16,"name":"bufferViewFloatVec4"},{"buffer":0,"byteOffset":3360,"byteLength":624,"byteStride":8,"name":"bufferViewFloatVec2"}],"buffers":[{"uri":"left.bin","byteLength":3984}],"materials":[{"pbrMetallicRoughness":{"baseColorFactor":[0.5,0.5,0.5,1.0],"metallicFactor":0.0,"roughnessFactor":0.450053632},"name":"lambert2"}]}